<?xml version="1.0" encoding="UTF-8"?>
<!DOCTYPE svg PUBLIC "-//W3C//DTD SVG 1.1//EN" "http://www.w3.org/Graphics/SVG/1.1/DTD/svg11.dtd">
<!-- Creator: CorelDRAW 2018 (64-Bit) -->
<svg xmlns="http://www.w3.org/2000/svg" xml:space="preserve" width="100mm" height="99.9998mm" version="1.1" style="shape-rendering:geometricPrecision; text-rendering:geometricPrecision; image-rendering:optimizeQuality; fill-rule:evenodd; clip-rule:evenodd"
viewBox="0 0 10000 9999.98"
 xmlns:xlink="http://www.w3.org/1999/xlink">
 <defs>
  <style type="text/css">
   <![CDATA[
    .fil0 {fill:#1A6977;fill-rule:nonzero}
   ]]>
  </style>
 </defs>
 <g id="Layer_x0020_1">
  <metadata id="CorelCorpID_0Corel-Layer"/>
  <path class="fil0" d="M9002.18 4999.98c0,2210.34 -1791.84,4002.19 -4002.19,4002.19 -2210.34,0 -4002.19,-1791.85 -4002.19,-4002.19 0,-2210.35 1791.85,-4002.19 4002.19,-4002.19 2210.35,0 4002.19,1791.84 4002.19,4002.19zm426.19 2323.55c22.31,-42.58 43.92,-85.3 65.18,-128.41 17.71,-36.46 35,-72.93 52.04,-109.69 12.62,-27.69 25.04,-55.39 37.32,-83.23 20.24,-46.67 39.81,-93.31 58.9,-140.46 11.29,-28.38 22.38,-56.77 33.33,-85.29 18.02,-47.82 35.34,-95.6 52.17,-143.86 9.93,-29.06 19.66,-58.1 29.23,-87.29 15.72,-48.91 30.74,-97.74 45.24,-147.03 11.38,-39.61 22.35,-79.17 32.99,-118.98 10.43,-40.02 20.44,-79.97 30.12,-120.17 7.08,-30.26 13.96,-60.49 20.67,-90.83 10.92,-50.9 21.13,-101.64 30.76,-152.79 5.61,-30.81 11,-61.58 16.22,-92.46 8.41,-51.78 16.12,-103.36 23.23,-155.34 4.08,-31.31 7.95,-62.57 11.64,-93.92 5.84,-52.6 10.99,-104.96 15.51,-157.69 2.52,-31.77 4.83,-63.47 6.94,-95.27 3.21,-53.34 5.73,-106.4 7.59,-159.8l1.64 -64.29c0.5,-32.27 0.81,-64.47 0.91,-96.75l-545.26 0c-0.09,28.83 -0.36,57.58 -0.82,86.4 -1.05,47.8 -2.71,95.31 -4.98,143.07 -2.04,37.93 -4.44,75.69 -7.19,113.58 -2.99,37.67 -6.32,75.15 -10.02,112.76 -3.91,37.4 -8.17,74.59 -12.79,111.91 -4.84,37.11 -10.01,74.02 -15.54,111.04 -5.74,36.82 -11.81,73.42 -18.25,110.12 -6.63,36.51 -13.59,72.81 -20.92,109.19 -5.64,27.14 -11.44,54.18 -17.42,81.26 -10.23,44.95 -20.96,89.51 -32.3,134.19 -11.58,44.42 -23.64,88.44 -36.31,132.56 -12.91,43.87 -26.28,87.33 -40.26,130.87 -14.21,43.31 -28.87,86.19 -44.15,129.14 -15.49,42.71 -31.42,84.99 -47.95,127.32 -16.75,42.09 -33.92,83.75 -51.7,125.42 -17.99,41.47 -36.38,82.48 -55.38,123.5 -11.52,24.47 -23.15,48.81 -34.96,73.13 -19.31,39.15 -38.95,77.91 -59.21,116.57l483.78 251.52zm568.21 -2509.58c-3.39,-98.02 -10.29,-195.69 -19.28,-293.34 -4.13,-42.03 -8.65,-83.85 -13.58,-125.8 -3.87,-31.3 -7.94,-62.51 -12.21,-93.76 -7.43,-51.87 -15.46,-103.35 -24.19,-155.02 -5.4,-30.81 -10.98,-61.51 -16.78,-92.26 -9.94,-51.05 -20.46,-101.67 -31.69,-152.45 -9.19,-40.38 -18.71,-80.51 -28.66,-120.72 -10.16,-40.01 -20.65,-79.76 -31.56,-119.58 -11.12,-39.62 -22.56,-78.98 -34.42,-118.39 -12.06,-39.22 -24.44,-78.16 -37.23,-117.15 -9.75,-29.1 -19.65,-58.07 -29.76,-87.04 -17.11,-48.12 -34.72,-95.76 -53.02,-143.44 -14.82,-37.94 -29.93,-75.59 -45.46,-113.25 -15.71,-37.47 -31.71,-74.66 -48.11,-111.84 -12.44,-27.74 -25.03,-55.35 -37.81,-82.95 -21.56,-45.82 -43.57,-91.13 -66.24,-136.42 -13.74,-27.01 -27.6,-53.88 -41.66,-80.72 -23.69,-44.57 -47.79,-88.62 -72.56,-132.61l-14.21 -24.89 -472.68 271.8c22.03,38.59 43.46,77.25 64.56,116.36 21.13,39.75 41.67,79.54 61.82,119.8 19.96,40.47 39.32,80.95 58.28,121.9 18.75,41.15 36.9,82.29 54.65,123.89 17.53,41.81 34.45,83.59 50.95,125.81 16.29,42.45 31.96,84.85 47.2,127.69 15.02,43.07 29.42,86.07 43.37,129.5 13.73,43.65 26.84,87.22 39.48,131.2 12.41,44.24 24.21,88.37 35.51,132.9 11.09,44.78 21.54,89.45 31.49,134.5 7.77,36.21 15.17,72.35 22.25,108.7 8.61,45.73 16.6,91.31 24.06,137.24 4.32,27.67 8.45,55.3 12.42,83.03 6.36,46.51 12.09,92.82 17.28,139.47l5.71 56.19c8.04,87.34 14.18,174.67 17.22,262.35l544.86 -20.7zm-762.94 -2475.23c-44.53,-70.88 -91.03,-140.17 -138.92,-208.81 -23.15,-32.77 -46.52,-65.21 -70.26,-97.56 -23.92,-32.19 -48.04,-64.04 -72.53,-95.79 -24.67,-31.58 -49.53,-62.83 -74.77,-93.97 -19.04,-23.21 -38.17,-46.26 -57.49,-69.25 -32.45,-38.14 -65.18,-75.7 -98.53,-113.06 -26.84,-29.71 -53.84,-59.06 -81.2,-88.28 -27.53,-29.05 -55.23,-57.75 -83.28,-86.31 -21.15,-21.27 -42.38,-42.37 -63.78,-63.4 -35.92,-34.87 -72.07,-69.12 -108.81,-103.12 -29.55,-27.02 -59.22,-53.66 -89.24,-80.14 -30.19,-26.32 -60.51,-52.26 -91.17,-78.03 -30.83,-25.6 -61.76,-50.82 -93.04,-75.85 -31.45,-24.87 -63,-49.36 -94.88,-73.66 -32.05,-24.12 -64.2,-47.86 -96.68,-71.4 -32.65,-23.36 -65.39,-46.35 -98.45,-69.12l-49.86 -33.69c-85.15,-56.41 -171.37,-110.71 -259.75,-161.95l-271.81 472.68c93.36,54.07 184.27,112.28 273.48,172.93 36.84,25.38 73.19,51.07 109.42,77.33 36.04,26.45 71.57,53.19 106.97,80.49 35.22,27.51 69.91,55.28 104.46,83.62 34.35,28.51 68.18,57.29 101.84,86.63 33.48,29.53 66.43,59.3 99.2,89.62 32.58,30.51 64.62,61.24 96.46,92.52 31.65,31.46 62.76,63.14 93.66,95.35 30.7,32.39 60.85,64.98 90.78,98.1 29.73,33.3 58.91,66.78 87.83,100.79 28.74,34.19 56.92,68.55 84.84,103.42 27.72,35.07 54.87,70.27 81.75,105.98l31.82 43.08c59.77,82.46 116.96,166.12 171.15,252.36l460.79 -291.51zm-1898.41 -1760.97c-82.09,-43.61 -165.45,-84.3 -249.79,-123.37 -36.94,-16.84 -73.89,-33.27 -111.13,-49.43 -37.43,-15.96 -74.84,-31.52 -112.55,-46.79 -37.89,-15.07 -75.76,-29.74 -113.91,-44.11 -28.73,-10.62 -57.46,-21.04 -86.31,-31.3 -48.38,-16.88 -96.7,-33.06 -145.48,-48.73 -29.37,-9.23 -58.73,-18.26 -88.21,-27.13 -49.44,-14.54 -98.77,-28.38 -148.55,-41.69 -29.98,-7.81 -59.94,-15.42 -90.01,-22.86 -50.43,-12.15 -100.72,-23.58 -151.43,-34.46 -40.76,-8.47 -81.44,-16.53 -122.35,-24.23 -41.12,-7.48 -82.14,-14.54 -123.4,-21.25 -31.06,-4.84 -62.08,-9.48 -93.2,-13.94 -52.2,-7.14 -104.18,-13.57 -156.55,-19.39 -31.54,-3.3 -63.03,-6.4 -94.61,-9.31 -52.98,-4.54 -105.7,-8.38 -158.78,-11.57l-63.88 -3.24c-71.29,-2.93 -142.18,-4.71 -213.54,-4.95l0 545.26c53.71,0.17 107.16,1.37 160.83,3.24 38.06,1.56 75.94,3.48 113.96,5.77 28.36,1.89 56.63,3.95 84.96,6.19 47,4.03 93.67,8.61 140.55,13.83 27.95,3.28 55.8,6.73 83.7,10.37 46.3,6.33 92.24,13.2 138.37,20.69 36.67,6.2 73.13,12.71 109.67,19.59 45.45,8.85 90.52,18.22 135.73,28.22 44.94,10.22 89.5,20.95 134.18,32.29 44.42,11.58 88.44,23.64 132.57,36.32 43.87,12.9 87.33,26.27 130.86,40.26 43.31,14.21 86.2,28.87 129.14,44.14 42.71,15.49 85,31.42 127.32,47.96 42.1,16.74 83.76,33.92 125.44,51.7l49.64 21.71c92.22,41.35 183.05,85.04 272.32,132.46l254.44 -482.25zm-2525.12 -574.23c-107.22,3.72 -214.26,11.74 -321.01,22.25 -41.97,4.39 -83.71,9.16 -125.58,14.35 -41.65,5.43 -83.09,11.23 -124.63,17.45 -41.34,6.44 -82.45,13.25 -123.66,20.48 -30.75,5.59 -61.39,11.37 -92.07,17.34 -50.94,10.26 -101.45,21.09 -152.11,32.61 -40.29,9.44 -80.34,19.21 -120.44,29.4 -39.92,10.4 -79.57,21.13 -119.29,32.28 -39.52,11.35 -78.77,23.03 -118.08,35.12 -39.11,12.3 -77.96,24.91 -116.84,37.94 -29.02,9.92 -57.92,19.99 -86.81,30.27 -47.99,17.4 -95.49,35.3 -143.03,53.87 -28.35,11.28 -56.57,22.71 -84.78,34.34 -46.86,19.65 -93.22,39.76 -139.59,60.55 -36.89,16.82 -73.49,33.9 -110.06,51.4 -36.41,17.67 -72.5,35.61 -108.57,53.95 -72.81,37.57 -145.12,76.34 -215.99,117.45l274.65 471.03c62.29,-36.11 125.94,-70.16 189.91,-103.18 40.19,-20.43 80.4,-40.26 121.08,-59.71 40.87,-19.24 81.76,-37.87 123.08,-56.1 41.55,-18.02 83.08,-35.44 125.05,-52.44 42.2,-16.79 84.36,-32.96 126.95,-48.71 42.82,-15.53 85.59,-30.44 128.78,-44.91 43.42,-14.25 86.77,-27.88 130.53,-41.04 35.17,-10.34 70.29,-20.32 105.64,-30 35.54,-9.5 71.01,-18.63 106.72,-27.46 35.87,-8.64 71.68,-16.9 107.71,-24.86 36.22,-7.77 72.36,-15.16 108.72,-22.25 45.73,-8.61 91.3,-16.6 137.23,-24.06 27.67,-4.32 55.31,-8.45 83.03,-12.42 46.51,-6.36 92.83,-12.1 139.48,-17.29l56.18 -5.7c86.01,-7.91 172.17,-14.09 258.5,-17.08l-20.7 -544.87zm-2474.65 764.86c-86.73,54.52 -171.24,112.09 -254.54,171.71 -32.48,23.54 -64.62,47.28 -96.67,71.4 -31.89,24.3 -63.44,48.79 -94.89,73.66 -31.28,25.03 -62.21,50.25 -93.04,75.85 -22.98,19.32 -45.8,38.73 -68.56,58.32 -37.75,32.89 -74.91,66.07 -111.86,99.85 -29.37,27.19 -58.4,54.53 -87.29,82.24 -28.72,27.87 -57.08,55.9 -85.29,84.28 -21.03,21.41 -41.88,42.89 -62.65,64.54 -34.44,36.34 -68.27,72.9 -101.83,110.05 -19.98,22.39 -39.79,44.84 -59.51,67.47 -32.69,37.96 -64.74,76.11 -96.51,114.84 -25.24,31.14 -50.1,62.38 -74.77,93.97 -24.49,31.75 -48.61,63.6 -72.53,95.79 -23.74,32.35 -47.11,64.79 -70.26,97.56 -22.99,32.94 -45.58,65.96 -67.97,99.3l-33.11 50.31c-45.19,70.03 -88.99,140.65 -130.77,212.78l472.68 271.8c50.24,-86.79 103.89,-171.37 159.78,-254.62 25.16,-37.01 50.64,-73.52 76.68,-109.91 26.25,-36.21 52.78,-71.91 79.88,-107.48 27.29,-35.37 54.85,-70.24 82.98,-104.94 28.32,-34.53 56.9,-68.54 86.04,-102.38 29.33,-33.66 58.91,-66.79 89.03,-99.74 30.32,-32.76 60.86,-64.99 91.95,-97.02 31.27,-31.84 62.76,-63.13 94.78,-94.21 32.21,-30.9 64.62,-61.25 97.56,-91.37 33.12,-29.92 66.43,-59.3 100.26,-88.43 34.02,-28.94 68.2,-57.32 102.9,-85.44 34.89,-27.92 69.92,-55.29 105.47,-82.37l42.89 -32.08c88.23,-64.74 178.02,-126.7 270.69,-184.94l-291.52 -460.79zm-1759.5 1899.75c-43.01,80.84 -83.09,163.32 -121.57,246.39 -16.84,36.94 -33.27,73.89 -49.43,111.14 -15.96,37.42 -31.52,74.84 -46.79,112.55 -15.07,37.88 -29.74,75.76 -44.11,113.92 -14.17,38.33 -27.93,76.65 -41.39,115.24 -13.26,38.78 -26.1,77.52 -38.64,116.53 -9.23,29.38 -18.26,58.73 -27.13,88.22 -14.54,49.43 -28.39,98.77 -41.69,148.55 -7.81,29.97 -15.42,59.93 -22.86,90.01 -12.14,50.42 -23.59,100.71 -34.45,151.43 -8.48,40.76 -16.54,81.43 -24.24,122.35 -7.48,41.12 -14.54,82.14 -21.25,123.4 -4.84,31.06 -9.48,62.07 -13.93,93.19 -7.14,52.2 -13.58,104.19 -19.4,156.55 -3.3,31.55 -6.4,63.03 -9.31,94.62 -4.53,52.97 -8.38,105.7 -11.57,158.77 -1.72,31.99 -3.24,63.9 -4.56,95.9 -2.15,61.89 -3.44,123.45 -3.64,185.38l545.26 0c0.18,-55.02 1.33,-109.7 3.25,-164.68 1.56,-38.06 3.48,-75.95 5.77,-113.97 1.89,-28.35 3.95,-56.63 6.2,-84.96 4.02,-47 8.6,-93.67 13.82,-140.55 3.28,-27.94 6.74,-55.8 10.37,-83.69 6.33,-46.3 13.2,-92.25 20.7,-138.37 6.19,-36.67 12.7,-73.13 19.59,-109.68 8.85,-45.44 18.22,-90.52 28.21,-135.73 10.23,-44.94 20.95,-89.5 32.3,-134.17 9.26,-35.53 18.81,-70.84 28.73,-106.19 12.64,-43.98 25.75,-87.56 39.48,-131.23 13.94,-43.41 28.35,-86.41 43.37,-129.47 15.23,-42.83 30.91,-85.24 47.19,-127.68 16.51,-42.23 33.43,-84.02 50.96,-125.83l21.42 -49.79c43.88,-99.42 90.53,-197.74 141.58,-293.7l-482.24 -254.45zm-572.22 2527.3c1.72,41.87 3.86,83.56 6.38,125.39 2.82,42.39 6.03,84.58 9.65,126.91 3.88,42.11 8.13,84.02 12.8,126.05 4.91,41.81 10.2,83.41 15.91,125.12 5.94,41.5 12.24,82.77 18.96,124.14 6.96,41.18 14.27,82.11 22,123.14 5.96,30.62 12.11,61.12 18.46,91.66 10.87,50.72 22.31,101.01 34.45,151.43 9.92,40.11 20.17,79.95 30.84,119.86 10.88,39.73 22.09,79.19 33.71,118.7 8.87,29.49 17.9,58.85 27.13,88.22 15.68,48.78 31.86,97.1 48.73,145.47 10.27,28.86 20.68,57.59 31.3,86.31 17.97,47.71 36.43,94.92 55.56,142.18 15.49,37.59 31.27,74.89 47.45,112.2 16.38,37.13 33.03,73.96 50.09,110.78 17.24,36.64 34.76,72.99 52.68,109.32 18.1,36.15 36.46,72 55.22,107.81 29.6,55.71 59.82,111.04 91.46,165.62l471.02 -274.67c-50.31,-86.84 -96.98,-175.62 -141.35,-265.62 -19.72,-40.61 -38.84,-81.22 -57.56,-122.3 -18.51,-41.28 -36.42,-82.56 -53.92,-124.28 -17.28,-41.94 -33.96,-83.85 -50.21,-126.2 -16.03,-42.57 -31.45,-85.09 -46.43,-128.04 -14.76,-43.18 -28.91,-86.3 -42.6,-129.84 -10.76,-34.99 -21.16,-69.93 -31.27,-105.12 -12.41,-44.23 -24.21,-88.36 -35.52,-132.89 -11.07,-44.78 -21.53,-89.44 -31.48,-134.49 -7.77,-36.21 -15.16,-72.36 -22.24,-108.71 -6.89,-36.55 -13.4,-73.01 -19.59,-109.68 -7.5,-46.12 -14.37,-92.07 -20.7,-138.36 -3.63,-27.9 -7.09,-55.75 -10.37,-83.7 -5.22,-46.88 -9.8,-93.55 -13.82,-140.55 -3,-37.82 -5.63,-75.51 -7.91,-113.38 -1.55,-28.89 -2.92,-57.72 -4.1,-86.63l-544.73 24.15zm766.7 2472.32c53.76,85.59 110.85,169.12 169.67,251.29 23.54,32.48 47.28,64.63 71.4,96.68 24.29,31.89 48.78,63.44 73.65,94.88 25.03,31.28 50.26,62.22 75.85,93.04 19.32,22.99 38.73,45.81 58.32,68.56 32.9,37.74 66.07,74.9 99.85,111.85 20.38,22.03 40.84,43.88 61.48,65.66 34.65,36.12 69.55,71.65 105.04,106.94 21.41,21.02 42.89,41.87 64.54,62.64 36.35,34.44 72.9,68.27 110.05,101.83 22.39,19.99 44.85,39.8 67.47,59.51 37.96,32.69 76.11,64.74 114.84,96.52 31.14,25.23 62.39,50.09 93.98,74.76 31.75,24.49 63.6,48.61 95.78,72.53 32.35,23.75 64.79,47.11 97.57,70.27 32.93,22.98 65.95,45.58 99.3,67.96l50.3 33.11c71.16,45.92 142.84,90.25 216.12,132.71l271.8 -472.69c-72.48,-41.96 -143.26,-86.13 -213.34,-131.95 -37.32,-24.73 -74.15,-49.77 -110.86,-75.38 -36.53,-25.82 -72.55,-51.92 -108.45,-78.6 -35.71,-26.88 -70.91,-54.04 -105.98,-81.76 -34.87,-27.91 -69.22,-56.09 -103.42,-84.83 -34.01,-28.92 -67.49,-58.11 -100.79,-87.84 -33.12,-29.92 -65.71,-60.07 -98.1,-90.78 -32.21,-30.89 -63.88,-62 -95.35,-93.65 -31.27,-31.85 -62.01,-63.89 -92.52,-96.47 -30.32,-32.76 -60.09,-65.72 -89.62,-99.2 -29.33,-33.65 -58.11,-67.48 -86.63,-101.84 -28.34,-34.54 -56.11,-69.24 -83.61,-104.45l-32.58 -42.49c-75.67,-100.56 -148.01,-203.71 -214.97,-310.31l-460.79 291.5zm1902.58 1758.82c43.73,22.91 87.55,45.14 131.83,66.97 36.45,17.7 72.92,35 109.68,52.03 27.69,12.62 55.39,25.05 83.23,37.32 46.66,20.25 93.31,39.82 140.46,58.9 37.88,15.08 75.75,29.74 113.91,44.11 38.33,14.18 76.65,27.93 115.24,41.39 38.77,13.26 77.52,26.1 116.53,38.63 39.21,12.34 78.37,24.25 117.8,35.85 29.68,8.52 59.34,16.84 89.11,25.01 49.95,13.34 99.77,26 150.03,38.09 40.39,9.46 80.71,18.5 121.27,27.2 40.77,8.47 81.44,16.53 122.36,24.24 30.81,5.6 61.58,11 92.45,16.21 51.78,8.42 103.37,16.13 155.35,23.24 31.31,4.08 62.56,7.95 93.92,11.64 52.6,5.84 104.96,10.99 157.69,15.5 31.76,2.52 63.47,4.83 95.26,6.95 53.34,3.21 106.4,5.73 159.8,7.59l64.3 1.63c30.98,0.49 61.9,0.81 92.9,0.91l0 -545.26c-46.73,-0.15 -93.2,-0.93 -139.91,-2.26 -38.13,-1.33 -76.08,-3.01 -114.18,-5.06 -37.87,-2.29 -75.56,-4.91 -113.37,-7.91 -47,-4.02 -93.68,-8.61 -140.56,-13.83 -27.94,-3.28 -55.79,-6.73 -83.69,-10.36 -46.3,-6.33 -92.25,-13.2 -138.37,-20.7 -36.67,-6.19 -73.13,-12.7 -109.67,-19.59 -45.45,-8.85 -90.52,-18.22 -135.74,-28.21 -35.95,-8.19 -71.68,-16.66 -107.47,-25.52 -44.53,-11.3 -88.66,-23.1 -132.9,-35.52 -43.97,-12.63 -87.55,-25.74 -131.2,-39.47 -43.43,-13.95 -86.43,-28.36 -129.5,-43.38 -42.84,-15.23 -85.24,-30.91 -127.68,-47.19 -42.23,-16.5 -84.01,-33.43 -125.82,-50.96 -41.59,-17.74 -82.74,-35.89 -123.89,-54.65 -40.94,-18.96 -81.43,-38.32 -121.89,-58.27 -32.11,-16.08 -63.95,-32.38 -95.76,-49.05l-251.52 483.78zm2526.28 569.5c51.23,-2.11 102.18,-4.93 153.34,-8.34 42.33,-3.08 84.45,-6.55 126.72,-10.45 31.52,-3.09 62.95,-6.39 94.43,-9.88 52.27,-6.14 104.15,-12.91 156.24,-20.36 31.07,-4.65 62.02,-9.48 93.03,-14.52 51.47,-8.69 102.52,-17.98 153.76,-27.96 30.56,-6.15 61,-12.48 91.48,-19.02 50.6,-11.18 100.76,-22.92 151.06,-35.36 30.01,-7.62 59.9,-15.41 89.8,-23.4 49.66,-13.61 98.86,-27.75 148.17,-42.58 39.22,-12.07 78.17,-24.45 117.16,-37.24 38.8,-13 77.33,-26.3 115.89,-40.01 28.78,-10.44 57.43,-21.03 86.08,-31.83 47.57,-18.25 94.65,-36.98 141.76,-56.4 37.47,-15.71 74.65,-31.71 111.83,-48.1 37.01,-16.6 73.72,-33.47 110.42,-50.74 36.52,-17.47 72.75,-35.19 108.95,-53.32 36.03,-18.31 71.75,-36.89 107.44,-55.85 47.8,-25.78 95.23,-51.97 142.23,-79.19l-274.67 -471.02c-72.47,41.94 -145.99,81.31 -220.62,119.26 -40.33,20.19 -80.67,39.78 -121.47,58.99 -41.02,18.99 -82.04,37.39 -123.5,55.37 -41.68,17.79 -83.33,34.95 -125.43,51.71 -42.32,16.53 -84.6,32.46 -127.32,47.95 -42.94,15.27 -85.83,29.93 -129.14,44.14 -43.53,13.99 -87,27.36 -130.87,40.27 -44.12,12.67 -88.14,24.73 -132.56,36.31 -26.75,6.79 -53.48,13.4 -80.32,19.86 -45,10.54 -89.88,20.45 -135.13,29.86 -36.38,7.33 -72.67,14.28 -109.18,20.92 -36.7,6.44 -73.31,12.5 -110.13,18.25 -37.02,5.53 -73.93,10.7 -111.04,15.53 -37.31,4.63 -74.51,8.88 -111.91,12.79 -28.17,2.78 -56.29,5.37 -84.5,7.78 -47.33,3.75 -94.43,6.89 -141.84,9.44l-54.31 2.41 24.15 544.73zm2473.12 -769.49c41.5,-26.43 82.46,-53.26 123.31,-80.68 33.21,-22.58 66.08,-45.37 98.88,-68.54 24.46,-17.51 48.75,-35.12 73,-52.91 40.25,-29.92 79.93,-60.15 119.46,-91.02 23.56,-18.64 46.96,-37.37 70.3,-56.27 38.73,-31.78 76.88,-63.84 114.85,-96.53 22.62,-19.71 45.08,-39.52 67.47,-59.51 37.14,-33.56 73.69,-67.38 110.03,-101.82 21.66,-20.77 43.14,-41.62 64.54,-62.65 35.51,-35.29 70.41,-70.81 105.05,-106.94 20.64,-21.78 41.11,-43.63 61.49,-65.66 33.78,-36.95 66.95,-74.1 99.85,-111.85 26.13,-30.35 51.9,-60.83 77.49,-91.65 25.41,-30.97 50.45,-62.07 75.3,-93.5 18.5,-23.68 36.81,-47.42 55.03,-71.32 30.17,-40.09 59.7,-80.33 88.9,-121.14 23.17,-32.79 45.97,-65.67 68.54,-98.87 22.4,-33.37 44.42,-66.82 66.21,-100.59l32.22 -50.93c29.39,-47.4 58.14,-94.95 86.09,-143.22l-472.68 -271.81c-38.13,65.87 -77.93,130.28 -119.2,194.22 -24.5,37.48 -49.33,74.46 -74.73,111.34 -25.6,36.69 -51.5,72.88 -77.97,108.94 -26.66,35.88 -53.61,71.25 -81.12,106.47 -27.71,35.05 -55.69,69.57 -84.22,103.94 -28.73,34.18 -57.72,67.84 -87.25,101.33 -29.72,33.3 -59.69,66.07 -90.2,98.65 -30.7,32.39 -61.62,64.25 -93.09,95.9 -31.65,31.47 -63.51,62.39 -95.9,93.09 -32.58,30.51 -65.35,60.47 -98.65,90.2 -33.48,29.53 -67.14,58.52 -101.32,87.24 -34.37,28.54 -68.9,56.52 -103.94,84.22 -35.23,27.52 -70.6,54.47 -106.47,81.13 -36.07,26.47 -72.26,52.37 -108.95,77.97 -22.1,15.22 -44.24,30.27 -66.52,45.23 -29.89,19.8 -59.85,39.26 -90.09,58.52l294.29 459.02zm-5455.92 -3368l348.96 0 0 -1832.06 -291.71 0 -597.06 343.51 119.96 234.46 419.85 -239.91 0 1494zm905.12 -916.03c0,588.88 256.27,948.75 700.66,948.75 444.38,0 700.65,-359.87 700.65,-948.75 0,-588.88 -256.27,-948.75 -700.65,-948.75 -444.39,0 -700.66,359.87 -700.66,948.75zm327.16 0c0,-411.67 141.76,-662.49 373.5,-662.49 231.73,0 373.5,250.82 373.5,662.49 0,411.67 -141.77,662.49 -373.5,662.49 -231.74,0 -373.5,-250.82 -373.5,-662.49zm1243.18 0c0,588.88 256.27,948.75 700.66,948.75 444.38,0 700.66,-359.87 700.66,-948.75 0,-588.88 -256.28,-948.75 -700.66,-948.75 -444.39,0 -700.66,359.87 -700.66,948.75zm327.16 0c0,-411.67 141.77,-662.49 373.5,-662.49 231.73,0 373.5,250.82 373.5,662.49 0,411.67 -141.77,662.49 -373.5,662.49 -231.73,0 -373.5,-250.82 -373.5,-662.49zm2448.2 458.02c0,286.26 201.75,490.73 485.28,490.73 280.81,0 482.56,-204.47 482.56,-490.73 0,-286.26 -201.75,-490.74 -482.56,-490.74 -283.53,0 -485.28,204.48 -485.28,490.74zm259 0c0,-171.76 92.7,-286.26 226.28,-286.26 133.59,0 223.56,114.5 223.56,286.26 0,171.75 -89.97,286.26 -223.56,286.26 -133.58,0 -226.28,-114.51 -226.28,-286.26zm-1450.38 -916.04c0,286.26 199.02,490.74 482.55,490.74 280.81,0 485.28,-204.48 485.28,-490.74 0,-286.25 -204.47,-490.73 -485.28,-490.73 -283.53,0 -482.55,204.48 -482.55,490.73zm258.99 0c0,-171.75 89.97,-286.25 223.56,-286.25 133.59,0 226.28,114.5 226.28,286.25 0,171.76 -92.69,286.26 -226.28,286.26 -133.59,0 -223.56,-114.5 -223.56,-286.26zm43.62 1305.89l179.94 136.32 1374.05 -1832.06 -179.94 -136.32 -1374.05 1832.06z"/>
 </g>
</svg>
