<?xml version="1.0" encoding="UTF-8"?>
<svg width="19px" height="19px" viewBox="0 0 19 19" version="1.1" xmlns="http://www.w3.org/2000/svg" xmlns:xlink="http://www.w3.org/1999/xlink">
    <!-- Generator: Sketch 52.5 (67469) - http://www.bohemiancoding.com/sketch -->
    <title>Group 25</title>
    <desc>Created with Sketch.</desc>
    <g id="07_Copy_management" stroke="none" stroke-width="1" fill="none" fill-rule="evenodd" stroke-linecap="round" stroke-linejoin="round">
        <g id="Copy_management_3" transform="translate(-81.000000, -283.000000)" fill-rule="nonzero" stroke="#FFFFFF" stroke-width="1.5">
            <g id="Group-25" transform="translate(90.500000, 292.500000) rotate(-225.000000) translate(-90.500000, -292.500000) translate(79.000000, 281.000000)">
                <g id="previous" transform="translate(11.500000, 4.500000) rotate(-630.000000) translate(-11.500000, -4.500000) translate(7.000000, 0.500000)">
                    <g id="Group-6-Copy" transform="translate(4.500000, 4.000000) scale(-1, 1) translate(-4.500000, -4.000000) ">
                        <path d="M0.307708189,4 L8.25,4" id="Line-5"></path>
                        <path d="M4.75,0 L8.75,4" id="Line-2"></path>
                        <path d="M4.75,4 L8.75,8" id="Line-2" transform="translate(6.750000, 6.000000) scale(1, -1) translate(-6.750000, -6.000000) "></path>
                    </g>
                </g>
                <g id="previous-copy-2" transform="translate(18.500000, 11.500000) rotate(-180.000000) translate(-18.500000, -11.500000) translate(14.000000, 7.500000)">
                    <g id="Group-6-Copy" transform="translate(4.500000, 4.000000) scale(-1, 1) translate(-4.500000, -4.000000) ">
                        <path d="M0.307708189,4 L8.25,4" id="Line-5"></path>
                        <path d="M4.75,0 L8.75,4" id="Line-2"></path>
                        <path d="M4.75,4 L8.75,8" id="Line-2" transform="translate(6.750000, 6.000000) scale(1, -1) translate(-6.750000, -6.000000) "></path>
                    </g>
                </g>
                <g id="previous-copy-3" transform="translate(4.500000, 11.500000) scale(-1, 1) rotate(-180.000000) translate(-4.500000, -11.500000) translate(0.000000, 7.500000)">
                    <g id="Group-6-Copy" transform="translate(4.500000, 4.000000) scale(-1, 1) translate(-4.500000, -4.000000) ">
                        <path d="M0.307708189,4 L8.25,4" id="Line-5"></path>
                        <path d="M4.75,0 L8.75,4" id="Line-2"></path>
                        <path d="M4.75,4 L8.75,8" id="Line-2" transform="translate(6.750000, 6.000000) scale(1, -1) translate(-6.750000, -6.000000) "></path>
                    </g>
                </g>
                <g id="previous-copy" transform="translate(11.500000, 18.500000) rotate(-450.000000) translate(-11.500000, -18.500000) translate(7.000000, 14.500000)">
                    <g id="Group-6-Copy" transform="translate(4.500000, 4.000000) scale(-1, 1) translate(-4.500000, -4.000000) ">
                        <path d="M0.307708189,4 L8.25,4" id="Line-5"></path>
                        <path d="M4.75,0 L8.75,4" id="Line-2"></path>
                        <path d="M4.75,4 L8.75,8" id="Line-2" transform="translate(6.750000, 6.000000) scale(1, -1) translate(-6.750000, -6.000000) "></path>
                    </g>
                </g>
            </g>
        </g>
    </g>
</svg>