<?xml version="1.0" encoding="utf-8" ?>
<svg xmlns="http://www.w3.org/2000/svg" xmlns:xlink="http://www.w3.org/1999/xlink" width="20" height="24">
	<defs>
		<clipPath id="clip_0">
			<rect x="-381.20001" y="-517.90002" width="1235" height="1156.15" clip-rule="evenodd"/>
		</clipPath>
	</defs>
	<g clip-path="url(#clip_0)">
		<path fill="rgb(62,58,74)" stroke="none" transform="matrix(0.95 0 0 0.95 0.699982 0.799988)" d="M20 21.75L20 11.25C20 10.0078 19.0402 9.00001 17.8571 9.00001L16.4286 9.00001L16.4286 6.81564C16.4286 3.08439 13.5714 0.00939667 10.0178 2.16765e-05C6.46428 -0.00935331 3.57143 3.02346 3.57143 6.75002L3.57143 9.00001L2.14286 9.00001C0.959821 9.00001 0 10.0078 0 11.25L0 21.75C0 22.9922 0.959821 24 2.14286 24L17.8571 24C19.0402 24 20 22.9922 20 21.75ZM14.2857 9.00001L14.2857 6.75002C14.2857 4.27033 12.3616 2.25002 9.99999 2.25002C7.63839 2.25002 5.71428 4.27033 5.71428 6.75002L5.71428 9.00001L14.2857 9.00001ZM2.14286 11.25L17.8571 11.25L17.8571 21.75L2.14286 21.75L2.14286 11.25ZM8.74999 18C8.74999 18.7266 9.30803 19.3125 9.99999 19.3125C10.692 19.3125 11.25 18.7266 11.25 18L11.25 15C11.25 14.2734 10.692 13.6875 9.99999 13.6875C9.30803 13.6875 8.74999 14.2734 8.74999 15L8.74999 18Z" fill-rule="evenodd"/>
	</g>

</svg>