<?xml version="1.0" encoding="UTF-8"?>
<svg width="27px" height="31px" viewBox="0 0 27 31" version="1.1" xmlns="http://www.w3.org/2000/svg" xmlns:xlink="http://www.w3.org/1999/xlink">
    <!-- Generator: Sketch 52.4 (67378) - http://www.bohemiancoding.com/sketch -->
    <title>Combined Shape</title>
    <desc>Created with Sketch.</desc>
    <g id="Design" stroke="none" stroke-width="1" fill="none" fill-rule="evenodd">
        <g id="UI_Kit" transform="translate(-1881.000000, -581.000000)" fill="#006074" fill-rule="nonzero">
            <path d="M1882.54041,593 C1882.92018,586.416518 1888.07579,581 1894.67456,581 C1901.25536,581 1906.24786,586.884474 1906.64016,593.006462 C1907.40287,593.077141 1908,593.718837 1908,594.5 L1908,610.5 C1908,611.328427 1907.32843,612 1906.5,612 L1882.5,612 C1881.67157,612 1881,611.328427 1881,610.5 L1881,594.5 C1881,593.671573 1881.67157,593 1882.5,593 L1882.54041,593 Z M1886.1643,593 L1903.06635,593 C1902.71769,589.892568 1900.35563,584.837169 1894.67456,584.837169 C1888.95482,584.837169 1886.50247,589.683087 1886.1643,593 Z M1897.05041,608.47687 C1897.3007,608.47687 1895.83877,601.881761 1895.89422,601.864467 C1897.11434,601.483976 1898,600.345417 1898,599 C1898,597.343146 1896.65685,596 1895,596 C1893.34315,596 1892,597.343146 1892,599 C1892,600.319946 1892.85245,601.440792 1894.03684,601.842046 C1894.17597,601.88918 1892.225,608.450438 1892.37244,608.47687 C1892.54538,608.507872 1896.86856,608.47687 1897.05041,608.47687 Z" id="Combined-Shape"></path>
        </g>
    </g>
</svg>