<?xml version="1.0" encoding="UTF-8"?>
<svg width="19px" height="19px" viewBox="0 0 19 19" version="1.1" xmlns="http://www.w3.org/2000/svg" xmlns:xlink="http://www.w3.org/1999/xlink">
    <!-- Generator: Sketch 52.5 (67469) - http://www.bohemiancoding.com/sketch -->
    <title>Group 20</title>
    <desc>Created with Sketch.</desc>
    <g id="00_Took_kit" stroke="none" stroke-width="1" fill="none" fill-rule="evenodd">
        <g id="UI_Kit" transform="translate(-1045.000000, -646.000000)" fill-rule="nonzero" stroke="#006074">
            <g id="Group-20" transform="translate(1046.000000, 647.000000)">
                <path d="M7.45704045,17.0484283 L9.60954813,17.0484283 C9.6588345,17.0484283 9.70077147,17.0125176 9.70835674,16.9638185 L10.0459023,14.7966985 C10.0513241,14.7618892 10.074662,14.7325008 10.1073383,14.7193348 L11.806296,14.0347865 C11.8395211,14.0213993 11.877369,14.026806 11.9055168,14.0489605 L13.7156229,15.4736478 C13.7566126,15.5059097 13.8155153,15.5012453 13.8509163,15.462934 L15.3798262,13.8083363 C15.4121028,13.7734063 15.4153127,13.7205765 15.3875027,13.6819956 L14.022437,11.7882416 C14.0015039,11.7592012 13.9976912,11.7211863 14.0124402,11.6885672 L14.7319547,10.097273 C14.7459717,10.0662726 14.7747884,10.0445256 14.8084444,10.0395486 L16.9401172,9.72431939 C16.9891622,9.71706668 17.0254884,9.67497355 17.0254884,9.62539519 L17.0254884,7.42926919 C17.0254884,7.37907716 16.988282,7.33666136 16.9385178,7.33012165 L14.8116772,7.05062471 C14.7762606,7.04597048 14.7460162,7.02277805 14.7323335,6.98978142 L14.0103374,5.24864304 C13.9968546,5.21612832 14.0014592,5.17891948 14.0224614,5.15067234 L15.3831104,3.32065175 C15.4129936,3.28045995 15.4085353,3.22436013 15.372679,3.18939277 L13.8476719,1.70219223 C13.8132041,1.66857891 13.7596775,1.66429735 13.7203047,1.69200421 L11.905913,2.96880239 C11.8774033,2.98886482 11.8405033,2.99263206 11.8085276,2.97874477 L10.1047734,2.23879153 C10.0735351,2.22522451 10.0513493,2.19669175 10.0458984,2.16307356 L9.70879706,0.0839950359 C9.70094652,0.0355766932 9.65913682,-5.02991275e-14 9.61008616,-4.94188024e-14 L7.45650368,-4.99184027e-14 C7.40743586,-4.99093891e-14 7.36561685,0.0356009739 7.35778554,0.0840398255 L7.02169235,2.16287026 C7.01623915,2.19659986 6.99394216,2.22521062 6.96256666,2.2387384 L5.2482079,2.9778968 C5.21496867,2.99222814 5.17657962,2.98747825 5.14783573,2.96547773 L3.49192955,1.69804953 C3.45178021,1.66731929 3.39500986,1.67139172 3.35965792,1.70753805 L1.76105273,3.34206577 C1.72670873,3.37718151 1.72295246,3.4320409 1.75218956,3.4715101 L2.99572338,5.15024317 C3.01682251,5.17872636 3.02126648,5.21625066 3.00740416,5.24887431 L2.26731651,6.99060063 C2.25348944,7.02314132 2.22350673,7.04596177 2.18845853,7.05062101 L0.0868221105,7.33000884 C0.0371242997,7.33661558 -1.11819476e-13,7.37900172 -1.11813336e-13,7.42913675 L-1.12132525e-13,9.62554146 C-1.11246904e-13,9.67505617 0.0362354316,9.7171154 0.0852052421,9.72444098 L2.18935651,10.039209 C2.22390961,10.044378 2.25325976,10.0672054 2.26677566,10.0994227 L3.00801105,11.8662756 C3.02152666,11.8984923 3.01724885,11.9354268 2.99672708,11.9637011 L1.75263172,13.6777833 C1.72329632,13.7182008 1.72827763,13.7740651 1.76430127,13.8086547 L3.35902937,15.3399 C3.39492686,15.3743684 3.45070725,15.3771947 3.48990479,15.346531 L5.14905759,14.0486003 C5.17711679,14.02665 5.21473478,14.0212848 5.24781168,14.0345155 L6.96000995,14.7193948 C6.99281705,14.7325177 7.01626344,14.7619798 7.02168621,14.7968955 L7.35822512,16.9637753 C7.36579166,17.0124941 7.40773753,17.0484283 7.45704045,17.0484283 Z" id="Path-6"></path>
                <circle id="Oval" cx="8.5" cy="8.5" r="2.5"></circle>
            </g>
        </g>
    </g>
</svg>