<?xml version="1.0" encoding="utf-8" ?>
<svg xmlns="http://www.w3.org/2000/svg" xmlns:xlink="http://www.w3.org/1999/xlink" width="34" height="34">
	<defs>
		<clipPath id="clip_0">
			<rect x="-47" y="-110" width="281" height="182" clip-rule="evenodd"/>
		</clipPath>
	</defs>
	<g clip-path="url(#clip_0)">
		<path fill="rgb(62,58,74)" stroke="none" d="M32.4919 0L33.1774 0C33.6317 0 34 0.36831 34 0.822581L34 11.7903C34 12.2446 33.6317 12.6129 33.1774 12.6129L22.2097 12.6129C21.7554 12.6129 21.3871 12.2446 21.3871 11.7903L21.3871 11.1048C21.3871 10.6506 21.7554 10.2823 22.2097 10.2823L30.044 10.2823C27.607 5.5577 22.6801 2.33065 17 2.33065C9.12359 2.33065 2.7527 8.51481 2.3508 16.2259C2.32811 16.6608 1.96528 17 1.52979 17L0.843214 17C0.375302 17 -0.0019879 16.61 0.02125 16.1427C0.467774 7.1522 7.89869 0 17 0C23.2533 0 28.7169 3.37676 31.6694 8.40588L31.6694 0.822581C31.6694 0.36831 32.0377 0 32.4919 0ZM32.4703 17L33.1568 17C33.6247 17 34.002 17.39 33.9788 17.8573C33.5322 26.8478 26.1014 34 17 34C10.7468 34 5.28309 30.6232 2.33065 25.5941L2.33065 33.1774C2.33065 33.6317 1.96233 34 1.50806 34L0.822581 34C0.368311 34 0 33.6317 0 33.1774L0 22.2097C0 21.7554 0.368311 21.3871 0.822581 21.3871L11.7903 21.3871C12.2446 21.3871 12.6129 21.7554 12.6129 22.2097L12.6129 22.8952C12.6129 23.3494 12.2446 23.7177 11.7903 23.7177L3.95531 23.7177C6.39748 28.4509 11.3374 31.6694 17 31.6694C24.8519 31.6694 31.2472 25.5108 31.6493 17.7741C31.6719 17.3392 32.0349 17 32.4703 17Z" fill-rule="evenodd"/>
	</g>

</svg>