<?xml version="1.0" encoding="utf-8"?>
<!-- Generator: Adobe Illustrator 23.0.3, SVG Export Plug-In . SVG Version: 6.00 Build 0)  -->
<svg version="1.1" id="Layer_1" xmlns="http://www.w3.org/2000/svg" xmlns:xlink="http://www.w3.org/1999/xlink" x="0px" y="0px"
	 viewBox="0 0 145.06 145.06" style="enable-background:new 0 0 145.06 145.06;" xml:space="preserve">
<style type="text/css">
	.st0{fill:#4F4B5C;}
	.st1{fill:#C8D900;}
	.st2{fill:#A6A6A6;}
</style>
<g>
	<path class="st0" d="M104.17,62.5H55.22V45.4c0-9.54,7.56-17.46,17.1-17.46c9.54-0.18,17.46,7.74,17.46,17.28v4.32
		c0,2.34,1.98,4.32,4.32,4.32s4.32-1.98,4.32-4.32V45.4c0-14.22-11.52-26.1-25.92-26.1c-14.22,0-25.92,11.52-25.92,25.92V62.5h-5.76
		c-4.68,0-8.64,3.78-8.64,8.64v31.68c0,4.68,3.96,8.64,8.64,8.64h63.36c4.86,0,8.64-3.96,8.64-8.64V71.14
		C112.81,66.28,109.03,62.5,104.17,62.5L104.17,62.5z M104.17,102.82H40.82V71.14h63.36V102.82z M72.5,97.06
		c2.88,0,5.04-2.34,5.04-5.04V81.94c0-2.88-2.16-5.04-5.04-5.04c-2.7,0-5.04,2.16-5.04,5.04v10.08
		C67.46,94.72,69.8,97.06,72.5,97.06L72.5,97.06z"/>
</g>
<g>
	<path class="st1" d="M120.16,54.92l-47.34,47.52L55.36,84.98c-0.9-0.9-2.16-0.9-3.06,0l-5.04,5.04c-0.9,0.9-0.9,2.16,0,3.06
		L71.2,117.2c0.9,0.72,2.34,0.72,3.06,0l54-54c0.9-0.9,0.9-2.34,0-3.06l-5.04-5.22C122.32,54.2,121.06,54.2,120.16,54.92
		L120.16,54.92z"/>
</g>
<g>
	<path class="st2" d="M72.53,145.06c-19.37,0-37.59-7.54-51.29-21.24C7.54,110.12,0,91.91,0,72.53c0-19.37,7.54-37.59,21.24-51.29
		C34.94,7.54,53.16,0,72.53,0s37.59,7.54,51.29,21.24l0,0l0,0c13.7,13.7,21.24,31.91,21.24,51.29c0,19.37-7.54,37.59-21.24,51.29
		C110.12,137.52,91.91,145.06,72.53,145.06z M72.53,9c-16.97,0-32.92,6.61-44.92,18.61C15.61,39.61,9,55.56,9,72.53
		c0,16.97,6.61,32.92,18.61,44.92c12,12,27.95,18.61,44.92,18.61s32.92-6.61,44.92-18.61c12-12,18.61-27.95,18.61-44.92
		c0-16.97-6.61-32.92-18.61-44.92l0,0C105.46,15.61,89.5,9,72.53,9z"/>
</g>
</svg>
