<?xml version="1.0" encoding="utf-8" ?>
<svg xmlns="http://www.w3.org/2000/svg" xmlns:xlink="http://www.w3.org/1999/xlink" width="52" height="46">
	<defs>
		<clipPath id="clip_0">
			<rect x="-624" y="-443" width="1300" height="959" clip-rule="evenodd"/>
		</clipPath>
	</defs>
	<g clip-path="url(#clip_0)">
		<path fill="rgb(255,255,255)" stroke="none" transform="translate(0 0.5)" d="M19.632 0L32.9367 0C34.6328 0 36.1461 1.05759 36.7352 2.66964L38.1875 6.57143L47.125 6.57143C49.8164 6.57143 52 8.77902 52 11.5L52 41.0714C52 43.7924 49.8164 46 47.125 46L4.875 46C2.18359 46 0 43.7924 0 41.0714L0 11.5C0 8.77902 2.18359 6.57143 4.875 6.57143L13.8125 6.57143L15.0719 3.1933C15.7828 1.27321 17.6008 0 19.632 0ZM33.783 4.52812C33.6598 4.21328 33.3518 4 33.0129 4L19.5621 4C18.8741 4 18.258 4.42656 18.0219 5.05625L15.958 10.5L4.64286 10.5C3.73929 10.5 3 11.2313 3 12.125L3 41.375C3 42.2687 3.73929 43 4.64286 43L47.3571 43C48.2607 43 49 42.2687 49 41.375L49 12.125C49 11.2313 48.2607 10.5 47.3571 10.5L36.0522 10.5L33.783 4.52812ZM26 39C19.38 39 14 33.3958 14 26.5C14 19.6042 19.38 14 26 14C32.62 14 38 19.6042 38 26.5C38 33.3958 32.62 39 26 39ZM17 26C17 21.0398 21.0398 17 26 17C30.9602 17 35 21.0398 35 26C35 30.9602 30.9602 35 26 35C21.0398 35 17 30.9602 17 26Z" fill-rule="evenodd"/>
	</g>

</svg>