<?xml version="1.0" encoding="utf-8" ?>
<svg xmlns="http://www.w3.org/2000/svg" xmlns:xlink="http://www.w3.org/1999/xlink" width="34" height="21">
	<defs>
		<clipPath id="clip_0">
			<rect x="0.00019836426" y="0.004699707" width="16.415199" height="20.995295" clip-rule="evenodd"/>
		</clipPath>
	</defs>
	<g clip-path="url(#clip_0)">
		<path fill="rgb(255,255,255)" stroke="none" transform="translate(0.000198364 0.00469971)" d="M10.1668 0C12.2986 0.00578947 14.2491 0.64379 16.076 1.73916C16.4262 1.94989 16.5384 2.11432 16.254 2.48484C15.9298 2.90747 15.7576 3.58368 15.3507 3.77011C14.9552 3.95305 14.4882 3.36947 14.0417 3.14484C9.17403 0.699368 3.84963 3.0499 2.48056 8.25695C1.60563 11.5836 2.83076 15.1788 5.52129 17.1774C8.18689 19.1562 11.8963 19.272 14.6968 17.3927C15.2759 17.0037 15.5082 17.0072 15.8437 17.6498C16.535 18.9733 16.5804 18.9709 15.2736 19.6553C11.6685 21.538 8.08943 21.4824 4.69849 19.2014C1.34609 16.9469 -0.219042 13.6504 0.0246252 9.55495C0.339692 4.25295 4.89683 0.00694737 10.1668 0"/>
	</g>
	<path fill="rgb(255,255,255)" stroke="none" transform="translate(24 6)" d="M4.8929 2.79221C4.70179 3.29714 4.56898 3.65428 4.43401 4.0103C3.71708 5.88893 3.716 5.87661 5.65734 5.77809C6.07628 5.7557 6.07304 5.61911 5.93159 5.2922C5.59148 4.50739 5.27404 3.71249 4.8929 2.79221M10 9.89473C9.9093 9.92719 9.88879 9.94063 9.86719 9.94175C7.82759 10.0907 7.81032 10.0974 7.00808 8.14149C6.81049 7.66232 6.55999 7.50446 6.07412 7.52685C5.23949 7.56827 4.4027 7.5582 3.56807 7.52909C3.20313 7.51789 3.00338 7.62649 2.8954 8.00043C2.7464 8.52326 2.53046 9.02595 2.38145 9.54878C2.28968 9.8701 2.12556 9.98205 1.81136 9.9675C1.3514 9.94735 0.887114 9.94287 0.427151 9.9675C-0.053327 9.99549 -0.0684431 9.80852 0.0902766 9.40436C1.2553 6.43415 2.40845 3.45835 3.5508 0.476954C3.68576 0.122053 3.86824 0.00897668 4.23102 0.00449842C5.94779 -0.0167733 5.94779 -0.0290885 6.62154 1.61891C7.74121 4.3596 8.86089 7.10253 10 9.89473"/>
	<path fill="rgb(255,255,255)" stroke="none" transform="translate(5 5)" d="M5.42705 10.9986C2.45565 10.9841 0.36395 9.0812 0.037053 6.09472C-0.276811 3.22306 1.42935 0.757179 4.16616 0.149627C5.74743 -0.201527 7.23421 0.0727074 8.63954 0.895411C9.00445 1.10722 9.125 1.29116 8.84806 1.67464C8.59936 2.01687 8.48424 2.54416 8.16494 2.73145C7.84239 2.92207 7.4916 2.4416 7.13212 2.29891C5.6562 1.71031 3.84904 2.18632 3.00845 3.40923C2.16025 4.64328 2.25039 6.65545 3.20502 7.79921C4.20634 8.99871 5.93748 9.32422 7.38625 8.58513C8.19861 8.17155 8.19861 8.17155 8.65909 9.02323C9.11088 9.86043 9.10979 9.85932 8.29852 10.2918C7.3982 10.7734 6.44466 11.0209 5.42705 10.9986"/>
	<path fill="rgb(255,255,255)" stroke="none" transform="translate(15 6)" d="M0.0123579 5.00044C0.0123579 3.53829 0.0254203 2.07614 0.00404546 0.613987C-0.00307949 0.194306 0.0859823 0.0125186 0.593041 0.00578571C2.53102 -0.0200236 2.53102 -0.0379779 2.53102 1.79785C2.53102 3.57981 2.56784 5.36402 2.51084 7.14374C2.49065 7.81702 2.74596 7.93933 3.37414 7.9225C4.75163 7.88435 6.13031 7.9225 7.5078 7.90567C7.96973 7.89894 8.09917 7.97973 7.92698 8.44767C7.36055 9.98276 7.38192 9.98949 5.66244 9.98949C3.99401 9.98949 2.3244 9.97378 0.657165 9.99959C0.154857 10.0086 -0.0102044 9.87279 0.000482986 9.3869C0.0325452 7.92587 0.0123579 6.46372 0.0123579 5.00044"/>

</svg>