<?xml version="1.0" encoding="iso-8859-1"?>
<svg version="1.1" id="Layer_3" xmlns="http://www.w3.org/2000/svg"  x="0px" y="0px"
	 viewBox="0 0 481 128.333" style="enable-background:new 0 0 481 128.333;" xml:space="preserve">
<g>
	<polygon style="fill:#ffffff;" points="111.667,33.5 96.667,33.5 96.667,95.5 139.857,95.5 144.667,82.5 111.667,82.5 	"/>
	<path style="fill:#ffffff;" d="M184.617,33.5h-14.45l-25,62h15.173l5.331-15h22.992h1.012l6.824,15h14.418L184.617,33.5z
		 M170.167,69.5l7.484-18.895l8.103,18.895H170.167z"/>
	<path style="fill:#ffffff;" d="M67.792,42c8.053-0.162,13.719,3.96,15.5,5.375c2.083-3.5,4.167-7,6.25-10.5
		c-2.797-2.021-12.156-8.248-25.25-7.5c-3.368,0.192-15.608,0.891-24.75,11c-8.894,9.835-8.624,21.687-8.5,24.875
		c0.119,3.068,0.698,13.786,9,22.625C51.214,99.769,67.17,98.463,71.042,98c8.809-1.055,15.17-4.949,18.375-7.25
		c-2-3.542-4-7.083-6-10.625c-1.06,0.894-8.899,7.285-19.375,5.25c-1.408-0.273-9.798-2.046-14.5-9.75
		c-2.819-4.62-2.957-9.151-3-11.5c-0.045-2.473-0.147-8.128,3.5-13.375C55.841,42.408,66.299,42.03,67.792,42z"/>
	<path style="fill:#ffffff;" d="M62.917,114c-4.512-0.146-19.127-1.222-31.875-12.625C14.9,86.937,14.439,67.289,14.417,64
		c-0.025-3.663,0.241-22.714,15.625-37.125c12.262-11.487,26.616-12.987,31.625-13.25C80.013,12.661,95.917,24.5,95.917,24.5
		l7.125-11.5c-3.802-2.593-26.186-17.333-54-10.5c-19.015,4.671-30.127,16.86-32.75,19.875c-3.32,3.816-14.381,17.462-15.375,38.25
		c-1.103,23.054,10.939,38.913,14.375,43.125c2.808,3.442,17.426,20.626,43,23.25c23.898,2.452,40.882-9.5,44.75-12.375L96.167,103
		C92.971,105.529,80.756,114.577,62.917,114z"/>
</g>
<g>
	<path style="fill:#ffffff;" d="M218.278,46.212c0-1.651,0.26-3.162,0.781-4.534c0.521-1.372,1.259-2.551,2.214-3.537
		c0.955-0.986,2.089-1.752,3.402-2.299c1.313-0.546,2.773-0.82,4.38-0.82c1.258,0,2.512,0.199,3.761,0.595
		c1.248,0.397,2.458,0.992,3.63,1.785l-1.14,1.801c-0.912-0.643-1.867-1.136-2.865-1.479c-0.999-0.343-2.008-0.515-3.028-0.515
		c-1.237,0-2.372,0.22-3.403,0.659c-1.031,0.44-1.916,1.056-2.653,1.849c-0.738,0.793-1.308,1.742-1.709,2.846
		c-0.402,1.104-0.603,2.321-0.603,3.65s0.2,2.546,0.603,3.649c0.401,1.104,0.971,2.053,1.709,2.846
		c0.737,0.793,1.622,1.41,2.653,1.849c1.031,0.439,2.166,0.659,3.403,0.659c1.02,0,2.029-0.171,3.028-0.515
		c0.998-0.342,1.954-0.836,2.865-1.479l1.14,1.801c-1.172,0.793-2.382,1.388-3.63,1.785c-1.249,0.396-2.502,0.595-3.761,0.595
		c-1.607,0-3.066-0.273-4.38-0.82c-1.313-0.547-2.448-1.313-3.402-2.299c-0.956-0.986-1.693-2.165-2.214-3.537
		C218.538,49.374,218.278,47.863,218.278,46.212z"/>
	<path style="fill:#ffffff;" d="M236.381,49.202c0-1.2,0.201-2.304,0.603-3.312c0.401-1.007,0.96-1.87,1.677-2.588
		s1.568-1.281,2.556-1.688c0.987-0.407,2.068-0.611,3.24-0.611c1.172,0,2.252,0.204,3.24,0.611c0.988,0.408,1.834,0.97,2.539,1.688
		c0.707,0.718,1.26,1.581,1.662,2.588c0.4,1.008,0.602,2.112,0.602,3.312c0,1.201-0.201,2.305-0.602,3.312
		c-0.402,1.008-0.955,1.876-1.662,2.605c-0.705,0.729-1.551,1.292-2.539,1.688c-0.988,0.396-2.067,0.595-3.24,0.595
		c-1.172,0-2.252-0.198-3.24-0.595c-0.988-0.396-1.84-0.959-2.556-1.688c-0.716-0.729-1.275-1.597-1.677-2.605
		C236.582,51.507,236.381,50.403,236.381,49.202z M239.051,49.202c0,0.9,0.13,1.731,0.391,2.492c0.26,0.761,0.629,1.41,1.107,1.945
		c0.477,0.536,1.047,0.954,1.709,1.254c0.662,0.3,1.395,0.45,2.198,0.45c0.782,0,1.503-0.15,2.166-0.45
		c0.662-0.3,1.231-0.718,1.709-1.254c0.477-0.536,0.851-1.184,1.123-1.945c0.271-0.761,0.408-1.592,0.408-2.492
		s-0.137-1.725-0.408-2.476c-0.271-0.75-0.646-1.398-1.123-1.945c-0.478-0.546-1.048-0.97-1.709-1.27
		c-0.663-0.3-1.384-0.45-2.166-0.45c-0.803,0-1.536,0.15-2.198,0.45c-0.663,0.3-1.232,0.724-1.709,1.27
		c-0.478,0.547-0.847,1.195-1.107,1.945C239.181,47.477,239.051,48.302,239.051,49.202z"/>
	<path style="fill:#ffffff;" d="M254.215,41.388h2.084l0.325,2.605c0.564-0.965,1.313-1.705,2.247-2.219
		c0.934-0.515,1.997-0.772,3.191-0.772c1.042,0,1.997,0.204,2.865,0.611c0.868,0.408,1.617,0.97,2.247,1.688
		c0.629,0.718,1.123,1.581,1.481,2.588c0.357,1.008,0.537,2.112,0.537,3.312c0,1.201-0.18,2.305-0.537,3.312
		c-0.358,1.008-0.853,1.871-1.481,2.589c-0.63,0.718-1.379,1.281-2.247,1.688s-1.823,0.611-2.865,0.611
		c-1.151,0-2.177-0.247-3.077-0.739c-0.901-0.493-1.634-1.19-2.198-2.09v9.132h-2.572V41.388z M266.555,49.202
		c0-0.9-0.125-1.72-0.374-2.46c-0.25-0.739-0.603-1.382-1.059-1.929s-0.999-0.97-1.628-1.27c-0.63-0.3-1.313-0.45-2.052-0.45
		c-0.694,0-1.33,0.118-1.904,0.354c-0.576,0.236-1.069,0.574-1.481,1.013c-0.413,0.439-0.733,0.954-0.961,1.543
		c-0.228,0.59-0.342,1.238-0.342,1.945v2.508c0,0.707,0.114,1.361,0.342,1.961s0.548,1.115,0.961,1.543
		c0.412,0.429,0.905,0.761,1.481,0.997c0.574,0.236,1.21,0.354,1.904,0.354c0.738,0,1.422-0.15,2.052-0.45
		c0.629-0.3,1.172-0.718,1.628-1.254c0.456-0.536,0.809-1.179,1.059-1.929C266.43,50.928,266.555,50.103,266.555,49.202z"/>
	<path style="fill:#ffffff;" d="M276.588,59.363c-0.651,1.629-1.406,2.824-2.263,3.585c-0.858,0.761-1.927,1.142-3.208,1.142
		c-0.304,0-0.651-0.021-1.042-0.064s-0.781-0.118-1.172-0.225l0.358-2.058c0.629,0.171,1.161,0.257,1.596,0.257
		c0.803,0,1.459-0.241,1.97-0.724c0.51-0.482,0.981-1.27,1.416-2.364l0.814-2.025l-6.545-15.5h2.702l5.08,12.669l4.917-12.669h2.734
		L276.588,59.363z"/>
	<path style="fill:#ffffff;" d="M284.893,41.388h2.084l0.325,2.958c0.392-1.007,1.021-1.795,1.889-2.363
		c0.868-0.568,1.878-0.852,3.028-0.852c0.586,0,1.248,0.086,1.986,0.257l-0.293,2.09c-0.305-0.064-0.618-0.118-0.944-0.161
		c-0.325-0.043-0.641-0.064-0.944-0.064c-1.367,0-2.47,0.488-3.305,1.463c-0.836,0.976-1.254,2.257-1.254,3.843v8.457h-2.572V41.388
		z"/>
	<path style="fill:#ffffff;" d="M294.635,36.629c0-0.493,0.163-0.9,0.488-1.222c0.326-0.321,0.749-0.482,1.271-0.482
		c0.499,0,0.911,0.161,1.237,0.482c0.325,0.322,0.488,0.729,0.488,1.222s-0.163,0.9-0.488,1.222
		c-0.326,0.322-0.738,0.482-1.237,0.482c-0.521,0-0.944-0.161-1.271-0.482C294.798,37.53,294.635,37.123,294.635,36.629z
		 M295.091,41.388h2.572v15.628h-2.572V41.388z"/>
	<path style="fill:#ffffff;" d="M314.423,57.306c0,0.986-0.195,1.897-0.586,2.733c-0.391,0.836-0.934,1.554-1.628,2.155
		c-0.695,0.6-1.52,1.066-2.475,1.398c-0.956,0.333-1.998,0.499-3.126,0.499c-0.934,0-1.927-0.112-2.979-0.337
		s-2.144-0.574-3.272-1.045l0.781-1.929c0.978,0.429,1.916,0.745,2.816,0.949c0.901,0.203,1.721,0.305,2.459,0.305
		c0.781,0,1.503-0.112,2.165-0.337s1.231-0.542,1.71-0.949c0.477-0.407,0.852-0.895,1.123-1.463
		c0.271-0.568,0.407-1.195,0.407-1.881v-2.83c-0.565,0.9-1.298,1.597-2.198,2.09c-0.901,0.493-1.916,0.739-3.045,0.739
		c-1.041,0-2.002-0.204-2.881-0.611c-0.88-0.407-1.634-0.97-2.264-1.688s-1.123-1.581-1.481-2.589
		c-0.358-1.007-0.537-2.111-0.537-3.312c0-1.2,0.179-2.304,0.537-3.312c0.358-1.007,0.852-1.87,1.481-2.588s1.384-1.281,2.264-1.688
		c0.879-0.407,1.84-0.611,2.881-0.611c1.173,0,2.23,0.257,3.175,0.772c0.944,0.514,1.698,1.254,2.264,2.219l0.325-2.605h2.084
		V57.306z M302.083,49.202c0,0.9,0.125,1.726,0.375,2.476c0.249,0.75,0.602,1.394,1.058,1.929c0.456,0.536,0.993,0.954,1.612,1.254
		c0.618,0.3,1.308,0.45,2.067,0.45c0.673,0,1.297-0.118,1.872-0.354c0.575-0.235,1.069-0.567,1.481-0.997
		c0.412-0.429,0.733-0.943,0.961-1.543s0.342-1.254,0.342-1.961v-2.508c0-0.708-0.114-1.355-0.342-1.945
		c-0.228-0.589-0.549-1.104-0.961-1.543s-0.906-0.777-1.481-1.013c-0.575-0.235-1.199-0.354-1.872-0.354
		c-0.76,0-1.449,0.15-2.067,0.45c-0.619,0.3-1.156,0.723-1.612,1.27s-0.809,1.19-1.058,1.929
		C302.208,47.482,302.083,48.302,302.083,49.202z"/>
	<path style="fill:#ffffff;" d="M317.145,34.378h2.572v9.743c0.543-0.986,1.297-1.752,2.263-2.299
		c0.966-0.547,2.057-0.82,3.272-0.82c0.868,0,1.672,0.14,2.41,0.418c0.737,0.279,1.378,0.675,1.921,1.19
		c0.542,0.515,0.961,1.131,1.254,1.849s0.439,1.506,0.439,2.363v10.193h-2.605v-9.808c0-1.2-0.385-2.175-1.155-2.926
		c-0.771-0.75-1.774-1.125-3.012-1.125c-0.695,0-1.33,0.124-1.905,0.37c-0.575,0.247-1.08,0.59-1.514,1.029
		c-0.435,0.44-0.771,0.97-1.01,1.592c-0.239,0.622-0.358,1.308-0.358,2.058v8.811h-2.572V34.378z"/>
	<path style="fill:#ffffff;" d="M337.636,41.388h4.981v2.026h-4.981v9.197c0,0.815,0.249,1.469,0.748,1.961
		c0.5,0.493,1.161,0.74,1.986,0.74c0.348,0,0.705-0.027,1.075-0.081c0.368-0.053,0.76-0.134,1.172-0.241l0.358,1.994
		c-1.064,0.278-2.116,0.418-3.158,0.418c-0.717,0-1.363-0.112-1.938-0.337c-0.576-0.225-1.075-0.536-1.498-0.933
		c-0.424-0.396-0.749-0.873-0.977-1.431c-0.229-0.557-0.342-1.179-0.342-1.865v-9.422h-3.289v-2.026h3.289v-4.63h2.572V41.388z"/>
	<path style="fill:#ffffff;" d="M219.938,73.995h2.67v19.519h10.615v2.09h-13.285V73.995z"/>
	<path style="fill:#ffffff;" d="M233.891,75.217c0-0.493,0.163-0.9,0.488-1.222c0.326-0.321,0.749-0.482,1.27-0.482
		c0.499,0,0.912,0.161,1.237,0.482c0.325,0.322,0.488,0.729,0.488,1.222s-0.163,0.9-0.488,1.222
		c-0.326,0.322-0.738,0.482-1.237,0.482c-0.521,0-0.944-0.161-1.27-0.482C234.053,76.117,233.891,75.71,233.891,75.217z
		 M234.346,79.976h2.572v15.628h-2.572V79.976z"/>
	<path style="fill:#ffffff;" d="M238.599,87.79c0-1.201,0.195-2.305,0.586-3.312c0.391-1.007,0.938-1.87,1.644-2.588
		c0.705-0.718,1.547-1.281,2.523-1.688c0.977-0.407,2.051-0.611,3.224-0.611c1.954,0,3.821,0.59,5.6,1.769l-1.074,1.769
		c-1.389-0.943-2.79-1.415-4.2-1.415c-0.825,0-1.585,0.15-2.279,0.45c-0.695,0.3-1.292,0.713-1.791,1.238
		c-0.5,0.525-0.885,1.163-1.156,1.913c-0.271,0.751-0.407,1.576-0.407,2.477s0.136,1.726,0.407,2.476
		c0.271,0.751,0.656,1.394,1.156,1.93c0.499,0.536,1.096,0.954,1.791,1.254c0.694,0.301,1.454,0.45,2.279,0.45
		c0.738,0,1.449-0.123,2.133-0.37c0.685-0.246,1.372-0.605,2.067-1.077l1.074,1.769c-1.779,1.18-3.646,1.769-5.6,1.769
		c-1.172,0-2.247-0.198-3.224-0.595c-0.977-0.396-1.818-0.959-2.523-1.688c-0.706-0.729-1.253-1.597-1.644-2.604
		C238.794,90.095,238.599,88.99,238.599,87.79z"/>
	<path style="fill:#ffffff;" d="M251.757,87.79c0-1.201,0.189-2.305,0.57-3.312c0.379-1.007,0.911-1.87,1.595-2.588
		c0.685-0.718,1.498-1.281,2.442-1.688c0.944-0.407,1.98-0.611,3.109-0.611c1.063,0,2.035,0.193,2.915,0.579
		c0.879,0.386,1.633,0.927,2.263,1.624c0.629,0.697,1.117,1.533,1.465,2.508c0.348,0.976,0.521,2.042,0.521,3.199
		c0,0.172,0,0.327,0,0.467s-0.012,0.295-0.033,0.466h-12.242c0.064,0.836,0.249,1.598,0.553,2.283
		c0.304,0.687,0.717,1.275,1.237,1.769c0.521,0.493,1.129,0.874,1.824,1.142c0.694,0.269,1.454,0.402,2.279,0.402
		c0.716,0,1.481-0.107,2.295-0.322c0.814-0.214,1.645-0.546,2.491-0.996l0.814,1.769c-1.042,0.514-2.058,0.895-3.045,1.141
		c-0.988,0.247-1.927,0.37-2.816,0.37c-1.216,0-2.323-0.198-3.321-0.595c-0.999-0.396-1.867-0.959-2.605-1.688
		c-0.738-0.729-1.308-1.597-1.709-2.604C251.957,90.095,251.757,88.99,251.757,87.79z M259.473,81.551
		c-1.433,0-2.61,0.478-3.532,1.431c-0.923,0.954-1.449,2.225-1.579,3.811h9.768c-0.021-0.771-0.151-1.479-0.391-2.122
		c-0.239-0.644-0.564-1.195-0.977-1.656c-0.413-0.461-0.896-0.82-1.449-1.077C260.759,81.68,260.146,81.551,259.473,81.551z"/>
	<path style="fill:#ffffff;" d="M268.225,79.976h2.084l0.325,2.862c0.543-1.029,1.313-1.828,2.312-2.396
		c0.998-0.567,2.127-0.852,3.386-0.852c0.868,0,1.672,0.14,2.41,0.418c0.737,0.279,1.378,0.675,1.921,1.19
		c0.542,0.515,0.961,1.131,1.254,1.849c0.293,0.719,0.439,1.506,0.439,2.363v10.193h-2.605v-9.808c0-1.2-0.385-2.175-1.155-2.926
		c-0.771-0.75-1.774-1.125-3.012-1.125c-0.695,0-1.33,0.124-1.905,0.37c-0.575,0.247-1.08,0.59-1.514,1.029
		c-0.435,0.44-0.771,0.97-1.01,1.592c-0.239,0.621-0.358,1.308-0.358,2.058v8.811h-2.572V79.976z"/>
	<path style="fill:#ffffff;" d="M283.857,83.963c0-0.643,0.142-1.232,0.424-1.769c0.282-0.535,0.678-0.997,1.188-1.382
		c0.51-0.386,1.118-0.686,1.823-0.9s1.481-0.322,2.328-0.322c0.825,0,1.688,0.091,2.589,0.273c0.9,0.182,1.817,0.456,2.751,0.82
		l-0.586,1.897c-1.649-0.686-3.17-1.029-4.559-1.029c-1.042,0-1.867,0.22-2.475,0.659c-0.607,0.44-0.911,1.024-0.911,1.752
		c0,0.644,0.222,1.137,0.667,1.479c0.444,0.343,1.004,0.627,1.677,0.852c0.673,0.226,1.4,0.435,2.182,0.628
		c0.781,0.192,1.509,0.461,2.182,0.804s1.231,0.81,1.677,1.398c0.445,0.59,0.668,1.378,0.668,2.363c0,0.665-0.142,1.271-0.424,1.817
		c-0.282,0.546-0.684,1.019-1.204,1.414c-0.521,0.397-1.14,0.708-1.856,0.933c-0.716,0.226-1.509,0.338-2.377,0.338
		c-1.867,0-3.831-0.396-5.894-1.189l0.619-1.897c1.845,0.751,3.537,1.126,5.079,1.126c1.063,0,1.916-0.236,2.556-0.708
		c0.641-0.471,0.961-1.082,0.961-1.833c0-0.664-0.223-1.174-0.667-1.527c-0.445-0.354-1.005-0.647-1.678-0.884
		s-1.405-0.45-2.197-0.644c-0.793-0.192-1.525-0.461-2.198-0.804s-1.232-0.793-1.677-1.351
		C284.08,85.721,283.857,84.949,283.857,83.963z"/>
	<path style="fill:#ffffff;" d="M296.573,75.217c0-0.493,0.163-0.9,0.488-1.222c0.326-0.321,0.749-0.482,1.271-0.482
		c0.499,0,0.911,0.161,1.237,0.482c0.325,0.322,0.488,0.729,0.488,1.222s-0.163,0.9-0.488,1.222
		c-0.326,0.322-0.738,0.482-1.237,0.482c-0.521,0-0.944-0.161-1.271-0.482C296.736,76.117,296.573,75.71,296.573,75.217z
		 M297.029,79.976h2.572v15.628h-2.572V79.976z"/>
	<path style="fill:#ffffff;" d="M302.369,79.976h2.084l0.325,2.862c0.543-1.029,1.313-1.828,2.312-2.396
		c0.998-0.567,2.127-0.852,3.386-0.852c0.868,0,1.672,0.14,2.41,0.418c0.737,0.279,1.378,0.675,1.921,1.19
		c0.542,0.515,0.961,1.131,1.254,1.849c0.293,0.719,0.439,1.506,0.439,2.363v10.193h-2.605v-9.808c0-1.2-0.385-2.175-1.155-2.926
		c-0.771-0.75-1.774-1.125-3.012-1.125c-0.695,0-1.33,0.124-1.905,0.37c-0.575,0.247-1.08,0.59-1.514,1.029
		c-0.435,0.44-0.771,0.97-1.01,1.592c-0.239,0.621-0.358,1.308-0.358,2.058v8.811h-2.572V79.976z"/>
	<path style="fill:#ffffff;" d="M333.067,95.893c0,0.986-0.195,1.897-0.586,2.733s-0.934,1.555-1.628,2.154
		c-0.695,0.601-1.52,1.066-2.475,1.399c-0.956,0.332-1.998,0.498-3.126,0.498c-0.934,0-1.927-0.112-2.979-0.338
		c-1.053-0.225-2.144-0.573-3.272-1.045l0.781-1.929c0.978,0.428,1.916,0.744,2.816,0.948c0.901,0.203,1.721,0.306,2.459,0.306
		c0.781,0,1.503-0.113,2.165-0.338c0.662-0.226,1.231-0.542,1.71-0.948c0.477-0.408,0.852-0.896,1.123-1.464
		s0.407-1.195,0.407-1.881V93.16c-0.565,0.899-1.298,1.597-2.198,2.09c-0.901,0.493-1.916,0.739-3.045,0.739
		c-1.041,0-2.002-0.204-2.881-0.61c-0.88-0.407-1.634-0.97-2.264-1.688c-0.63-0.718-1.123-1.581-1.481-2.589
		c-0.358-1.007-0.537-2.111-0.537-3.312c0-1.201,0.179-2.305,0.537-3.312c0.358-1.007,0.852-1.87,1.481-2.588
		s1.384-1.281,2.264-1.688c0.879-0.407,1.84-0.611,2.881-0.611c1.173,0,2.23,0.257,3.175,0.772c0.944,0.514,1.698,1.254,2.264,2.219
		l0.325-2.605h2.084V95.893z M320.726,87.79c0,0.9,0.125,1.726,0.375,2.476c0.249,0.751,0.602,1.394,1.058,1.93
		s0.993,0.954,1.612,1.254c0.618,0.301,1.308,0.45,2.067,0.45c0.673,0,1.297-0.118,1.872-0.354c0.575-0.236,1.069-0.568,1.481-0.997
		s0.733-0.943,0.961-1.544c0.228-0.6,0.342-1.254,0.342-1.961v-2.509c0-0.707-0.114-1.355-0.342-1.945
		c-0.228-0.589-0.549-1.104-0.961-1.543s-0.906-0.777-1.481-1.013c-0.575-0.235-1.199-0.354-1.872-0.354
		c-0.76,0-1.449,0.15-2.067,0.45c-0.619,0.3-1.156,0.723-1.612,1.27s-0.809,1.189-1.058,1.93
		C320.851,86.069,320.726,86.89,320.726,87.79z"/>
	<path style="fill:#ffffff;" d="M349.315,73.995h2.507l9.02,21.609h-2.735l-2.409-5.917H345.44l-2.409,5.917h-2.735L349.315,73.995z
		 M346.189,87.661h8.727l-4.363-10.644L346.189,87.661z"/>
	<path style="fill:#ffffff;" d="M375.308,95.893c0,0.986-0.195,1.897-0.586,2.733s-0.934,1.555-1.628,2.154
		c-0.695,0.601-1.52,1.066-2.475,1.399c-0.956,0.332-1.998,0.498-3.126,0.498c-0.934,0-1.927-0.112-2.979-0.338
		c-1.053-0.225-2.144-0.573-3.272-1.045l0.781-1.929c0.978,0.428,1.916,0.744,2.816,0.948c0.901,0.203,1.721,0.306,2.459,0.306
		c0.781,0,1.503-0.113,2.165-0.338c0.662-0.226,1.231-0.542,1.71-0.948c0.477-0.408,0.852-0.896,1.123-1.464
		s0.407-1.195,0.407-1.881V93.16c-0.565,0.899-1.298,1.597-2.198,2.09c-0.901,0.493-1.916,0.739-3.045,0.739
		c-1.041,0-2.002-0.204-2.881-0.61c-0.88-0.407-1.634-0.97-2.264-1.688c-0.63-0.718-1.123-1.581-1.481-2.589
		c-0.358-1.007-0.537-2.111-0.537-3.312c0-1.201,0.179-2.305,0.537-3.312c0.358-1.007,0.852-1.87,1.481-2.588
		s1.384-1.281,2.264-1.688c0.879-0.407,1.84-0.611,2.881-0.611c1.173,0,2.23,0.257,3.175,0.772c0.944,0.514,1.698,1.254,2.264,2.219
		l0.325-2.605h2.084V95.893z M362.967,87.79c0,0.9,0.125,1.726,0.375,2.476c0.249,0.751,0.602,1.394,1.058,1.93
		s0.993,0.954,1.612,1.254c0.618,0.301,1.308,0.45,2.067,0.45c0.673,0,1.297-0.118,1.872-0.354c0.575-0.236,1.069-0.568,1.481-0.997
		s0.733-0.943,0.961-1.544c0.228-0.6,0.342-1.254,0.342-1.961v-2.509c0-0.707-0.114-1.355-0.342-1.945
		c-0.228-0.589-0.549-1.104-0.961-1.543s-0.906-0.777-1.481-1.013c-0.575-0.235-1.199-0.354-1.872-0.354
		c-0.76,0-1.449,0.15-2.067,0.45c-0.619,0.3-1.156,0.723-1.612,1.27s-0.809,1.189-1.058,1.93
		C363.092,86.069,362.967,86.89,362.967,87.79z"/>
	<path style="fill:#ffffff;" d="M377.047,87.79c0-1.201,0.189-2.305,0.57-3.312c0.379-1.007,0.911-1.87,1.595-2.588
		c0.685-0.718,1.498-1.281,2.442-1.688c0.944-0.407,1.98-0.611,3.109-0.611c1.063,0,2.035,0.193,2.915,0.579
		c0.879,0.386,1.633,0.927,2.263,1.624c0.629,0.697,1.117,1.533,1.465,2.508c0.348,0.976,0.521,2.042,0.521,3.199
		c0,0.172,0,0.327,0,0.467s-0.012,0.295-0.033,0.466h-12.242c0.064,0.836,0.249,1.598,0.553,2.283
		c0.304,0.687,0.717,1.275,1.237,1.769c0.521,0.493,1.129,0.874,1.824,1.142c0.694,0.269,1.454,0.402,2.279,0.402
		c0.716,0,1.481-0.107,2.295-0.322c0.814-0.214,1.645-0.546,2.491-0.996l0.814,1.769c-1.042,0.514-2.058,0.895-3.045,1.141
		c-0.988,0.247-1.927,0.37-2.816,0.37c-1.216,0-2.323-0.198-3.321-0.595c-0.999-0.396-1.867-0.959-2.605-1.688
		c-0.738-0.729-1.308-1.597-1.709-2.604C377.247,90.095,377.047,88.99,377.047,87.79z M384.763,81.551
		c-1.433,0-2.61,0.478-3.532,1.431c-0.923,0.954-1.449,2.225-1.579,3.811h9.768c-0.021-0.771-0.151-1.479-0.391-2.122
		c-0.239-0.644-0.564-1.195-0.977-1.656c-0.413-0.461-0.896-0.82-1.449-1.077C386.049,81.68,385.436,81.551,384.763,81.551z"/>
	<path style="fill:#ffffff;" d="M393.515,79.976h2.084l0.325,2.862c0.543-1.029,1.313-1.828,2.312-2.396
		c0.998-0.567,2.127-0.852,3.386-0.852c0.868,0,1.672,0.14,2.41,0.418c0.737,0.279,1.378,0.675,1.921,1.19
		c0.542,0.515,0.961,1.131,1.254,1.849c0.293,0.719,0.439,1.506,0.439,2.363v10.193h-2.605v-9.808c0-1.2-0.385-2.175-1.155-2.926
		c-0.771-0.75-1.774-1.125-3.012-1.125c-0.695,0-1.33,0.124-1.905,0.37c-0.575,0.247-1.08,0.59-1.514,1.029
		c-0.435,0.44-0.771,0.97-1.01,1.592c-0.239,0.621-0.358,1.308-0.358,2.058v8.811h-2.572V79.976z"/>
	<path style="fill:#ffffff;" d="M409.204,87.79c0-1.201,0.195-2.305,0.586-3.312c0.391-1.007,0.938-1.87,1.645-2.588
		c0.705-0.718,1.547-1.281,2.523-1.688c0.977-0.407,2.052-0.611,3.224-0.611c1.954,0,3.82,0.59,5.601,1.769l-1.074,1.769
		c-1.39-0.943-2.79-1.415-4.201-1.415c-0.825,0-1.584,0.15-2.279,0.45c-0.694,0.3-1.291,0.713-1.79,1.238
		c-0.5,0.525-0.885,1.163-1.156,1.913c-0.271,0.751-0.407,1.576-0.407,2.477s0.136,1.726,0.407,2.476
		c0.271,0.751,0.656,1.394,1.156,1.93c0.499,0.536,1.096,0.954,1.79,1.254c0.695,0.301,1.454,0.45,2.279,0.45
		c0.738,0,1.449-0.123,2.133-0.37c0.685-0.246,1.373-0.605,2.068-1.077l1.074,1.769c-1.78,1.18-3.646,1.769-5.601,1.769
		c-1.172,0-2.247-0.198-3.224-0.595s-1.818-0.959-2.523-1.688c-0.706-0.729-1.254-1.597-1.645-2.604
		C409.399,90.095,409.204,88.99,409.204,87.79z"/>
	<path style="fill:#ffffff;" d="M430.915,97.951c-0.651,1.629-1.406,2.824-2.263,3.585c-0.858,0.761-1.927,1.142-3.208,1.142
		c-0.304,0-0.651-0.021-1.042-0.064s-0.781-0.118-1.172-0.225l0.358-2.059c0.629,0.172,1.161,0.258,1.596,0.258
		c0.803,0,1.459-0.241,1.97-0.724c0.51-0.482,0.981-1.271,1.416-2.363l0.814-2.026l-6.545-15.499h2.702l5.08,12.67l4.917-12.67
		h2.734L430.915,97.951z"/>
</g>
</svg>
