<svg xmlns="http://www.w3.org/2000/svg" viewBox="0 0 297.77 87.93"><defs><style>.cls-1{fill:#c43538;}</style></defs><title>Asset 1</title><g id="Layer_2" data-name="Layer 2"><g id="Layer_1-2" data-name="Layer 1"><g id="Layer_2-2" data-name="Layer 2"><g id="Layer_1-2-2" data-name="Layer 1-2"><path class="cls-1" d="M0,15V.53C.38.05.82.19,1.23.19h40c.61-.06.89.18.89.83q0,6.59,0,13.19c0,.64-.23.85-.86.85-2.27,0-4.54,0-6.81,0a1.62,1.62,0,0,0-1.35.3V32.63c0,.72,0,1.19,1,1.19,7.43,0,14.86,0,22.22,0a2.44,2.44,0,0,0,.27-1.75q0-7.86,0-15.74c0-1.23,0-1.25-1.28-1.26h-7.5V.36A4.55,4.55,0,0,1,49.7.21H87.35a9.37,9.37,0,0,0,1.06,0c.77-.08,1,.29,1,1,0,2.19,0,4.39,0,6.59v5.74c0,1.38.32,1.55-1.44,1.54q-3.74,0-7.44,0a3,3,0,0,0-1.81.24V70.66c-.06,1.79.25,1.45,1.54,1.45,2.69,0,5.39,0,8.08,0,.86,0,1.09.29,1.09,1.08q0,6.38,0,12.76c0,.68-.15,1.09-.93,1H48a2.6,2.6,0,0,1-.27-1.78q0-5.75,0-11.49c0-1.44.1-1.55,1.56-1.57,2.06,0,4.12,0,6.17,0,1.12,0,1.15,0,1.15-1.19V48.75H33.34c-.46.38-.24.91-.24,1.37q0,10.11,0,20.21,0,.42,0,.84c-.07.76.31,1,1,1,2.27,0,4.54,0,6.81,0,.34,0,.72-.13,1.11.23V87H2.18c-.42,0-.85,0-1.27,0-.6,0-.91-.14-.91-.83,0-4.25,0-8.5,0-12.76,0-1,.19-1.23,1.24-1.25,2.55,0,5.1,0,7.65,0,2.33,0,2.08.24,2.08-2V17.38c0-.5,0-1,0-1.49,0-.65-.24-.86-.86-.86C8.08,15.05,6,15,4,15Z"/><path class="cls-1" d="M121.88,62.38c2.53-7.47,5-14.74,7.44-22,1.41-4.17,2.89-8.31,4.2-12.51a1.54,1.54,0,0,1,1.77-1.32c4.46,0,8.93,0,13.4,0,1.41,0,1.44,0,1.89,1.39q3.84,11.53,7.66,23.09,1.69,5.07,3.38,10.14c.09.26.08.56.65.69l7-21.1a16.24,16.24,0,0,0-3.53-.18c-1-.1-2.33.48-3-.29s-.18-1.89-.19-2.87q0-4.78,0-9.57c0-1.27,0-1.3,1.26-1.3h27.74c.49.52.3,1.05.31,1.52q0,5.63,0,11.27c0,1.22,0,1.24-1.31,1.25h-4.46c-1.68,0-1.77,0-2.28,1.58-1.31,3.91-2.57,7.83-3.87,11.74-3.61,10.89-7.26,21.75-10.82,32.65a1.5,1.5,0,0,1-1.74,1.27c-4.68,0-9.36,0-14,0-1.44,0-1.47,0-1.91-1.34q-5.59-16.68-11.21-33.42c-.43.13-.48.6-.58.9-1.69,5-3.34,10.08-5,15.13q-2.85,8.64-5.7,17.31c-.46,1.4-.48,1.42-1.84,1.42h-14c-1.5,0-1.52,0-2-1.5q-4.71-14-9.38-28Q98.93,50.11,96.15,42c-.47-1.36-.48-1.37-1.91-1.38H88.92c-.62,0-.89-.19-.88-.84q0-6.16,0-12.34c0-.61.19-.92.85-.87.42,0,.85,0,1.28,0h28.71c1.93,0,2.32-.45,2.28,2.37s0,5.82,0,8.72v1.28c0,1.61.18,1.69-1.56,1.67h-3.2c-1.8,0-1.86.08-1.32,1.74.77,2.39,1.56,4.79,2.35,7.2q1.89,5.67,3.81,11.33C121.39,61.3,121.61,61.74,121.88,62.38Z"/><path class="cls-1" d="M218.36,32.9c1.17-1,2.27-2,3.42-2.89a20.47,20.47,0,0,1,12.78-4.78,24.72,24.72,0,0,1,11.07,2.05c6.2,2.9,10.31,7.72,13,13.86a37,37,0,0,1,2.68,11A41.27,41.27,0,0,1,259,71.37c-2.79,7.34-7.7,12.8-15.31,15.26a23.57,23.57,0,0,1-20.26-2.26,23.3,23.3,0,0,1-3.37-2.55c-.51-.46-.87-1.14-1.83-1.31v6.28c-2.26.24-27.55.24-29.63,0a133.86,133.86,0,0,1,0-13.88h5.88c1.09,0,2.13-.05,3.19,0,.88.06,1.13-.33,1.05-1.12a9.37,9.37,0,0,1,0-1.06V15.47c0-1.21,0-1.23-1.34-1.24-2.62,0-5.25,0-7.87,0-.81,0-1.11-.2-1.08-1.06,0-4,0-8,0-11.91,0-1,0-1.08,1.27-1.08h23.38c1.43,0,2.84,0,4.26,0,.63,0,.91.22.87.85s0,1,0,1.49V30.8A5.56,5.56,0,0,0,218.36,32.9Zm-.22,23.3c0,4.77.18,6.63,1.38,9.36,2.61,6,8.16,8.54,14.13,6.46,3.91-1.35,6-4.46,7.07-8.31a28.15,28.15,0,0,0,.06-14.18,11.16,11.16,0,0,0-11-8.68c-3.9.1-9,3.28-10.4,7.35a22.86,22.86,0,0,0-1.26,8Z"/><path class="cls-1" d="M283.14,28.65A14.28,14.28,0,0,1,269,14.19,14.53,14.53,0,0,1,283.67,0c7.07.12,14.23,6.38,14.1,14.62C297.63,22.25,291,29.05,283.14,28.65Zm.06-2.89c6.6.52,11.53-5.76,11.67-11.08C295,9,289.89,3,283.53,3a11.64,11.64,0,0,0-11.63,11.4c0,7.42,6.45,11.83,11.3,11.39Z"/><path class="cls-1" d="M280.27,16v5.8c-2.95.27-2.95.27-2.95-2.53,0-3.75,0-7.51,0-11.26,0-.83.24-1.11,1.08-1.08,2.27.06,4.54,0,6.8,0,2.06,0,3.82,1.36,4.1,3,.47,2.71-.34,4.2-2.81,5.15-.18.07-.36.17-.61.29,2,1.73,2.9,4.12,4.39,6.29a8.5,8.5,0,0,1-3.4.24c-.44,0-.5-.42-.67-.72-.66-1.17-1.22-2.38-1.95-3.5A3.51,3.51,0,0,0,280.27,16Zm.07-2.67c1.44,0,2.66,0,3.85,0a2.41,2.41,0,0,0,2.06-1.81,2.25,2.25,0,0,0-1.73-2,4.58,4.58,0,0,0-1.64-.3c-3,.09-2.48-.51-2.53,2.53C280.33,12.17,280.34,12.65,280.34,13.31Z"/></g></g></g></g></svg>